#!OML:ASF H:\Terrain\Patient Classification 1\Walking\liu\liu.ASF
:FULLY-SPECIFIED
:DEGREES
17
root 7.63113 15.6569 -30.5842 9.99961 -7.45452 -6.53714
lowerback -5.67105 3.26082 1.63296
upperback -0.425289 4.14607 3.41554
thorax 2.59782 2.06903 2.92986
lowerneck -22.9803 -5.90083 -13.5317
upperneck 18.6723 -7.73743 16.9556
head 11.1213 -2.56299 7.28021
rclavicle -1.41137e-014 -7.95139e-015
rhumerus -25.4154 22.9264 -83.6679
rradius 51.0617
rwrist -22.6668
rhand -32.1939 -25.5781
rfingers 7.12502
rthumb -5.43593 -55.4884
lclavicle -1.41137e-014 -7.95139e-015
lhumerus -60.0082 24.6143 53.1045
lradius 9.60781
lwrist -41.0312
lhand -7.75257 -23.899
lfingers 7.12502
lthumb 18.1469 5.27446
rfemur 23.0618 2.86786 27.7589
rtibia -3.18055e-015
rfoot 7.3706 2.54766
rtoes -27.4311
lfemur -46.8463 6.92734 -16.3416
ltibia 30.2833
lfoot -2.63114 10.4392
ltoes -4.68795
18
root 7.64878 15.6021 -30.3329 9.68039 -7.26092 -5.94114
lowerback -5.40729 3.24294 1.13231
upperback -0.45721 4.17258 3.11618
thorax 2.40289 2.07996 2.88168
lowerneck -23.1426 -5.98917 -12.7595
upperneck 18.6898 -8.01604 16.5486
head 11.1524 -2.66855 6.93146
rclavicle -3.01407e-014 -2.26615e-014
rhumerus -26.1576 22.0555 -83.9749
rradius 51.2575
rwrist -22.9332
rhand -31.8881 -24.9741
rfingers 7.12502
rthumb -5.14069 -54.8918
lclavicle -3.01407e-014 -2.26615e-014
lhumerus -59.6158 24.8529 52.6648
lradius 9.41851
lwrist -41.3868
lhand -7.65388 -24.1515
lfingers 7.12502
lthumb 18.2418 5.01314
rfemur 23.9789 2.56712 26.903
rtibia -1.90833e-014
rfoot 9.83633 1.58243
rtoes -23.3773
lfemur -46.8882 7.0199 -17.2501
ltibia 32.1755
lfoot -1.8235 10.3397
ltoes -3.99353
19
root 7.66824 15.6105 -30.0725 9.39779 -6.95969 -5.43383
lowerback -5.10759 3.16841 0.597241
upperback -0.557659 4.1194 3.01246
thorax 2.10382 2.05219 3.04438
lowerneck -23.1059 -6.05387 -12.7871
upperneck 18.6655 -8.09651 16.5363
head 11.1511 -2.71027 6.91562
rclavicle 5.81445e-015 -2.90226e-014
rhumerus -26.9719 21.2811 -84.0616
rradius 51.2874
rwrist -23.3659
rhand -31.5254 -23.6891
rfingers 7.12502
rthumb -4.79052 -53.615
lclavicle 5.81445e-015 -2.90226e-014
lhumerus -59.4431 25.161 52.3528
lradius 9.4528
lwrist -41.3785
lhand -6.86392 -23.8365
lfingers 7.12502
lthumb 19.0017 5.25532
rfemur 20.4521 2.04342 26.1095
rtibia 8.35252
rfoot 8.979 2.95845
rtoes -24.3328
lfemur -46.8053 7.1001 -18.1264
ltibia 33.9001
lfoot -1.19802 9.71834
ltoes -5.48722
20
root 7.68602 15.6202 -29.8141 9.4321 -6.77444 -5.01959
lowerback -5.09158 3.20665 0.179565
upperback -0.756901 4.20243 2.89771
thorax 1.86431 2.09464 3.15432
lowerneck -22.9541 -6.1826 -13.1375
upperneck 18.6661 -8.21712 16.7012
head 11.1695 -2.77971 7.02141
rclavicle -5.09386e-015 -2.14687e-014
rhumerus -27.8442 20.3312 -84.0568
rradius 51.217
rwrist -24.0316
rhand -31.3941 -23.1382
rfingers 7.12502
rthumb -4.66371 -53.0669
lclavicle -5.09386e-015 -2.14687e-014
lhumerus -59.1807 25.2969 52.1301
lradius 9.62372
lwrist -41.5996
lhand -6.31171 -23.6694
lfingers 7.12502
lthumb 19.5327 5.36945
rfemur 18.1468 1.72077 25.3629
rtibia 13.3758
rfoot 9.96292 3.43802
rtoes -25.8367
lfemur -47.1114 7.09978 -18.8631
ltibia 35.607
lfoot -0.681784 9.0503
ltoes -5.06732
21
root 7.71536 15.6125 -29.5634 9.39682 -6.72825 -4.43517
lowerback -5.11414 3.27471 -0.190495
upperback -0.824686 4.32023 2.63992
thorax 1.79357 2.15297 3.10046
lowerneck -23.1417 -6.39699 -13.2025
upperneck 18.7846 -8.4484 16.5255
head 11.2817 -2.89961 6.92706
rclavicle -2.25124e-014 1.66979e-014
rhumerus -28.7185 19.6884 -84.1815
rradius 51.3513
rwrist -24.8488
rhand -31.5879 -23.1577
rfingers 7.12502
rthumb -4.85084 -53.0821
lclavicle -2.25124e-014 1.66979e-014
lhumerus -58.7005 25.6544 51.9524
lradius 9.81845
lwrist -41.8972
lhand -6.32465 -23.7445
lfingers 7.12502
lthumb 19.5202 5.29558
rfemur 16.3725 0.986248 24.1434
rtibia 17.749
rfoot 11.2425 3.96024
rtoes -25.477
lfemur -47.1942 7.07253 -19.7855
ltibia 37.1095
lfoot -0.646547 8.24777
ltoes -1.07842
22
root 7.72812 15.5971 -29.3156 8.98979 -6.36325 -3.92632
lowerback -4.76136 3.17048 -0.772279
upperback -0.791497 4.21711 2.57297
thorax 1.59938 2.10109 3.32742
lowerneck -23.3893 -6.54987 -13.307
upperneck 18.9097 -8.58367 16.4006
head 11.3957 -2.9708 6.87733
rclavicle 5.46658e-016 1.11319e-014
rhumerus -29.6299 19.5453 -84.3656
rradius 51.4966
rwrist -25.9837
rhand -32.287 -23.4985
rfingers 7.12502
rthumb -5.52584 -53.4064
lclavicle 5.46658e-016 1.11319e-014
lhumerus -58.4404 26.1541 51.722
lradius 10.1639
lwrist -41.9316
lhand -6.19256 -24.1296
lfingers 7.12502
lthumb 19.6472 4.89761
rfemur 15.2077 0.0496162 23.2659
rtibia 22.0416
rfoot 12.7334 3.98409
rtoes -22.6504
lfemur -46.6956 7.22043 -20.6638
ltibia 38.4399
lfoot -1.32372 6.99684
ltoes 1.68657
23
root 7.74208 15.5715 -29.0819 8.76686 -5.97004 -3.91647
lowerback -4.42937 3.12852 -0.747259
upperback -0.839245 4.16354 2.54472
thorax 1.37222 2.07783 3.25788
lowerneck -23.2706 -6.55433 -13.3171
upperneck 18.7994 -8.64648 16.6269
head 11.3594 -2.98067 6.95266
rclavicle 1.17034e-014 -6.75868e-015
rhumerus -30.4384 19.2166 -84.6058
rradius 51.4105
rwrist -27.0011
rhand -32.8575 -25.2568
rfingers 7.12502
rthumb -6.07661 -55.1497
lclavicle 1.17034e-014 -6.75868e-015
lhumerus -56.9963 25.1748 53.8273
lradius 10.4641
lwrist -39.5315
lhand -6.05573 -24.2483
lfingers 7.12502
lthumb 19.7788 4.7654
rfemur 13.9565 -0.977179 22.9883
rtibia 26.2039
rfoot 14.268 3.90626
rtoes -20.7414
lfemur -46.3348 7.1848 -20.8535
ltibia 39.6298
lfoot -2.58218 6.37349
ltoes 2.74926
24
root 7.76482 15.5905 -28.8429 8.37301 -5.86548 -3.5637
lowerback -4.00425 3.14206 -0.918062
upperback -0.810852 4.19421 2.32438
thorax 1.16659 2.09488 3.1013
lowerneck -23.1281 -6.47809 -12.9987
upperneck 18.6633 -8.66113 16.6705
head 11.2733 -2.96574 6.90394
rclavicle -8.74653e-015 7.95139e-016
rhumerus -30.9427 18.4754 -84.8273
rradius 51.004
rwrist -27.3731
rhand -32.3868 -27.2354
rfingers 7.12502
rthumb -5.62224 -57.1408
lclavicle -8.74653e-015 7.95139e-016
lhumerus -55.338 23.6111 56.5245
lradius 10.9131
lwrist -36.2536
lhand -6.41025 -24.1255
lfingers 7.12502
lthumb 19.4379 4.92295
rfemur 12.7882 -0.787179 22.367
rtibia 30.5108
rfoot 15.0736 1.76898
rtoes -14.1835
lfemur -45.3931 6.99258 -21.2704
ltibia 40.383
lfoot -4.15361 6.31952
ltoes 3.30126
25
root 7.78742 15.6101 -28.6066 8.07448 -6.04053 -2.70407
lowerback -3.56293 3.15465 -1.83366
upperback -0.948405 4.25008 2.14254
thorax 0.722516 2.12977 3.39256
lowerneck -23.109 -6.55198 -13.1532
upperneck 18.815 -8.73078 16.6527
head 11.3441 -3.01009 6.91896
rclavicle 1.57785e-014 3.97569e-015
rhumerus -31.8391 17.9302 -84.9295
rradius 50.8328
rwrist -27.7227
rhand -31.7222 -27.9583
rfingers 7.12502
rthumb -4.98054 -57.8797
lclavicle 1.57785e-014 3.97569e-015
lhumerus -54.2435 22.1996 59.1483
lradius 11.5094
lwrist -32.8937
lhand -7.34241 -24.101
lfingers 7.12502
lthumb 18.5415 5.03537
rfemur 11.1397 -1.03273 21.0798
rtibia 34.9144
rfoot 15.8573 0.861795
rtoes -12.8364
lfemur -44.358 6.93952 -22.2884
ltibia 40.7336
lfoot -5.31301 6.26015
ltoes 2.53587
